<svg width="170" height="128" viewBox="0 0 170 128" fill="none" xmlns="http://www.w3.org/2000/svg">
<path fill-rule="evenodd" clip-rule="evenodd" d="M169.751 103.586C168.789 104.878 167.631 106.01 166.321 106.943C165.112 107.777 163.679 108.194 162.024 108.194C161.429 108.205 160.838 108.09 160.29 107.856C159.808 107.646 159.397 107.301 159.107 106.862C158.805 106.386 158.635 105.838 158.614 105.274C158.59 104.551 158.703 103.83 158.948 103.15L159.581 101.047H155.797L153.51 107.757H148.424L152.731 95.0257C152.451 95.2022 152.157 95.3562 151.852 95.4862C151.522 95.6373 151.168 95.7311 150.807 95.7637C150.434 95.8174 150.056 95.8174 149.684 95.7637C149.752 97.0691 149.646 98.3777 149.369 99.6549C149.082 101.078 148.57 102.445 147.851 103.705C147.139 104.965 146.164 106.055 144.994 106.902C143.811 107.762 142.366 108.192 140.659 108.194C139.873 108.21 139.093 108.054 138.372 107.737C137.746 107.456 137.183 107.051 136.716 106.547C136.326 106.116 136.016 105.619 135.801 105.079C135.679 105.203 135.561 105.33 135.437 105.455C134.944 105.951 134.408 106.402 133.835 106.804C133.282 107.194 132.687 107.521 132.061 107.777C131.454 108.027 130.805 108.155 130.149 108.155C129.595 108.181 129.042 108.079 128.533 107.858C128.167 107.687 127.864 107.406 127.666 107.053C127.474 106.673 127.385 106.248 127.41 105.823C127.432 105.285 127.518 104.751 127.666 104.234C126.43 105.663 125.234 106.689 124.08 107.311C122.916 107.934 121.615 108.255 120.295 108.244C119.402 108.244 118.712 108.052 118.225 107.669C117.738 107.285 117.495 106.682 117.496 105.859C117.524 105.281 117.616 104.708 117.772 104.151C117.957 103.41 118.193 102.596 118.481 101.71C118.645 101.207 118.82 100.705 119 100.176C118.475 100.158 117.935 100.166 117.38 100.202C116.762 100.242 116.228 100.288 115.778 100.341C115.515 101.272 115.18 102.182 114.777 103.062C114.39 103.916 113.886 104.711 113.279 105.424C112.701 106.102 111.998 106.661 111.209 107.071C110.367 107.49 109.433 107.686 108.496 107.641C107.84 107.649 107.198 107.447 106.663 107.065C106.203 106.707 106.039 106.065 106.171 105.139C106.263 104.576 106.478 104.04 106.802 103.57C107.159 103.035 107.575 102.542 108.043 102.1C108.539 101.63 109.075 101.205 109.645 100.829C110.177 100.472 110.73 100.147 111.301 99.856C111.568 98.321 111.463 97.1694 110.986 96.4012C110.774 96.0376 110.486 95.7238 110.143 95.481C109.8 95.2382 109.409 95.072 108.996 94.9935C108.052 94.8281 107.081 94.9098 106.177 95.2308C105.155 95.5587 104.204 96.0772 103.374 96.7591C102.475 97.5198 101.691 98.4079 101.047 99.3955C100.231 100.601 99.5623 101.9 99.0565 103.267C98.5112 104.727 98.1794 106.258 98.0714 107.813C97.9532 109.417 98.2025 111.027 98.8002 112.519L103.135 98.0281L108.341 96.0814L107.238 99.6549L101.956 117.921C100.902 117.248 99.8947 116.505 98.9404 115.696C98.1127 114.983 97.4585 114.089 97.0281 113.082C96.4456 111.653 96.1574 110.12 96.1812 108.576C96.1964 106.96 96.4418 105.355 96.91 103.81C97.3828 102.236 98.0658 100.733 98.9404 99.3432C99.7693 97.9989 100.785 96.7801 101.956 95.7235C103.495 94.3433 105.331 93.3379 107.32 92.7855C109.295 92.257 111.383 92.3397 113.311 93.0228C113.822 93.1989 114.282 93.4987 114.651 93.8955C115.023 94.3006 115.317 94.7718 115.518 95.2851C115.733 95.8337 115.879 96.4073 115.952 96.9924C116.031 97.5978 116.045 98.2101 115.992 98.8184C116.676 98.7393 117.353 98.6863 118.023 98.6595C118.523 98.6394 119.038 98.6293 119.56 98.6253L120.385 96.3569C120.674 95.5633 120.923 94.893 121.134 94.346C121.345 93.799 121.463 93.4746 121.489 93.3727L126.336 93.4129L122.157 105.087C122.105 105.202 122.078 105.327 122.078 105.454C122.078 105.58 122.105 105.705 122.157 105.821C122.199 105.911 122.265 105.988 122.349 106.041C122.433 106.094 122.531 106.12 122.63 106.118C122.997 106.197 123.45 106.078 123.99 105.76C124.556 105.422 125.084 105.022 125.565 104.57C126.07 104.102 126.531 103.591 126.945 103.041C127.276 102.626 127.546 102.165 127.746 101.672L130.782 93.3727L135.511 93.4129L131.568 104.89C131.435 105.292 131.448 105.589 131.609 105.782C131.769 105.975 132.032 105.982 132.397 105.802C132.731 105.594 133.053 105.369 133.363 105.127C133.743 104.836 134.124 104.518 134.506 104.174C134.802 103.906 135.087 103.635 135.367 103.359C135.351 103.208 135.337 103.055 135.331 102.903C135.252 101.421 135.536 99.9417 136.158 98.5952C136.735 97.3717 137.601 96.3085 138.681 95.4983C139.803 94.6707 141.085 94.089 142.445 93.7909C143.94 93.4574 145.482 93.3968 146.998 93.612L147.707 92.8981C147.974 92.6299 148.211 92.4047 148.416 92.2224C148.912 92.4946 149.426 92.7331 149.954 92.9363C150.579 93.1965 151.248 93.3331 151.924 93.3385C152.293 93.3352 152.662 93.309 153.028 93.26C153.448 93.2078 153.842 93.1407 154.211 93.059C154.139 93.2239 154.059 93.3807 153.979 93.5356H158.352L156.381 99.2528H160.126L162.463 93.5356H167.705L163.68 105.026C163.546 105.398 163.533 105.662 163.64 105.821C163.691 105.898 163.762 105.961 163.845 106.003C163.928 106.044 164.02 106.063 164.112 106.058C165.295 106.058 167.043 104.734 169.355 102.086C169.491 102.142 169.615 102.226 169.718 102.332C169.822 102.437 169.902 102.563 169.955 102.702C170.055 102.974 169.987 103.269 169.751 103.586ZM109.897 102.257C109.508 102.567 109.139 102.903 108.794 103.263C108.451 103.618 108.141 104.004 107.867 104.415C107.631 104.747 107.47 105.126 107.394 105.527C107.315 106.136 107.539 106.414 108.065 106.362C108.376 106.306 108.659 106.145 108.866 105.905C109.177 105.576 109.446 105.209 109.667 104.813C109.944 104.331 110.181 103.826 110.376 103.305C110.59 102.736 110.761 102.152 110.888 101.557C110.539 101.763 110.206 101.997 109.895 102.257H109.897ZM146.766 96.4595C146.743 96.0813 146.649 95.7109 146.49 95.3676C144.572 95.5016 143.047 96.1967 141.917 97.4529C140.786 98.7091 140.195 100.463 140.142 102.714C140.094 103.404 140.282 104.091 140.675 104.66C140.835 104.907 141.055 105.108 141.313 105.247C141.571 105.386 141.86 105.457 142.153 105.455C142.526 105.457 142.896 105.384 143.241 105.242C143.586 105.099 143.9 104.889 144.163 104.624C144.76 104.041 145.248 103.355 145.603 102.599C145.985 101.801 146.276 100.961 146.47 100.097C146.648 99.354 146.76 98.5962 146.804 97.833C146.83 97.3749 146.817 96.9155 146.766 96.4595ZM72.3694 88.7877C70.319 88.9727 68.2559 89.6745 66.1801 90.8931L64.9186 89.027C67.0729 87.331 69.5945 86.1682 72.2792 85.6324C75.0472 85.0908 77.8951 85.1113 80.655 85.6928L78.881 89.2663C76.7475 88.7739 74.5514 88.6132 72.3694 88.7897V88.7877ZM64.8005 93.5396L64.1998 95.446C64.4806 95.1254 64.8206 94.8625 65.201 94.6718C65.6888 94.4076 66.1963 94.1817 66.7188 93.9961C67.2659 93.7988 67.8258 93.6396 68.3947 93.5195C68.8932 93.4078 69.4018 93.3478 69.9125 93.3405C70.7535 93.3405 71.3775 93.5657 71.7847 94.0162C72.1918 94.4666 72.33 95.1021 72.1992 95.9226C72.1611 96.2175 72.1015 96.5092 72.0209 96.7953C71.9288 97.1399 71.8241 97.471 71.7066 97.7888C71.6085 98.059 71.4969 98.3241 71.3722 98.5831C71.3241 98.6796 71.2841 98.752 71.2541 98.8043C71.5674 98.4098 71.9403 98.0672 72.3593 97.7888C72.8327 97.4709 73.3423 97.211 73.8771 97.0145C74.4029 96.8197 74.9432 96.6671 75.493 96.5581C75.9794 96.4578 76.4742 96.4046 76.9707 96.3992C78.0213 96.3992 78.8162 96.7035 79.3555 97.3122C79.8948 97.9208 80.0063 98.8077 79.6899 99.9727L77.9559 105.135C77.8224 105.479 77.809 105.737 77.9158 105.909C77.9526 105.985 78.0094 106.049 78.0801 106.094C78.1507 106.14 78.2324 106.165 78.3163 106.166C78.7711 106.147 79.213 106.009 79.5978 105.764C80.0993 105.47 80.569 105.124 80.9994 104.733C81.472 104.309 81.9452 103.84 82.4191 103.325L82.6654 103.06L86.0393 93.4189H90.8089L86.6701 104.457C86.5466 104.766 86.4992 105.1 86.5319 105.43C86.5719 105.708 86.6707 105.847 86.8282 105.847C87.2487 105.847 87.748 105.579 88.326 105.042C88.9403 104.46 89.5074 103.829 90.022 103.156C90.5733 102.441 91.0725 101.727 91.5197 101.012C91.8521 100.501 92.1549 99.9702 92.4268 99.4237L94.7915 93.427H99.1967L94.9397 105.658C94.5058 106.923 93.9852 108.157 93.3819 109.35C92.8264 110.461 92.1305 111.495 91.3115 112.427C90.5478 113.293 89.6331 114.013 88.6123 114.55C87.5702 115.087 86.4134 115.359 85.2424 115.345C84.4014 115.345 83.738 115.219 83.2521 114.966C82.749 114.698 82.3323 114.291 82.0507 113.794C81.876 113.516 81.7998 113.188 81.8344 112.861C81.8704 112.574 81.9718 112.298 82.1308 112.057C82.2818 111.821 82.4753 111.617 82.7014 111.453C82.8883 111.308 83.1159 111.225 83.3522 111.216C83.4417 111.408 83.4757 111.621 83.4503 111.831C83.4368 112.112 83.463 112.393 83.5284 112.666C83.5971 112.949 83.7485 113.204 83.9629 113.4C84.1858 113.612 84.5602 113.718 85.0862 113.718C85.6112 113.696 86.1099 113.481 86.4878 113.114C87.0674 112.565 87.5591 111.928 87.9455 111.228C88.5569 110.171 89.1032 109.077 89.5815 107.952C90.1595 106.629 90.7902 105.054 91.4737 103.226C91.1472 103.891 90.7218 104.501 90.2122 105.036C89.6613 105.631 89.0537 106.17 88.3981 106.645C87.7782 107.102 87.1059 107.482 86.3957 107.777C85.7974 108.037 85.155 108.178 84.5035 108.194C84.1184 108.196 83.7389 108.1 83.4002 107.916C83.056 107.73 82.7698 107.451 82.5733 107.112C82.3464 106.697 82.2182 106.235 82.1988 105.762C82.1988 105.726 82.1988 105.686 82.1988 105.65C81.73 106.06 81.2321 106.436 80.7091 106.774C80.011 107.225 79.2552 107.578 78.4625 107.826C77.5996 108.086 76.7023 108.214 75.8014 108.204C74.5399 108.204 73.6335 107.853 73.0822 107.152C72.5309 106.451 72.5302 105.34 73.0802 103.82L74.618 99.6107C74.6924 99.4288 74.7193 99.2308 74.6961 99.0356C74.6694 98.864 74.5512 98.7782 74.3417 98.7782C74.1036 98.7838 73.8664 98.81 73.6328 98.8566C73.3063 98.924 72.9931 99.0449 72.7057 99.2145C72.3446 99.4269 72.0189 99.6949 71.7406 100.009C71.3891 100.415 71.121 100.888 70.9517 101.398L68.5489 107.751H63.7433L67.5277 96.6325C67.607 96.4161 67.6209 96.181 67.5677 95.9568C67.5601 95.8567 67.514 95.7635 67.4394 95.6967C67.3647 95.63 67.2672 95.5949 67.1673 95.5988C66.9092 95.6033 66.652 95.6295 66.3984 95.6772C66.0655 95.7421 65.7459 95.8631 65.4533 96.0352C64.5957 96.5342 63.9242 97.3012 63.541 98.2191L60.065 107.757H55.2213L56.0883 105.193C55.4653 105.842 54.7806 106.428 54.0439 106.943C52.8345 107.777 51.4022 108.194 49.7469 108.194C49.1516 108.205 48.5606 108.09 48.0129 107.856C47.5312 107.646 47.1202 107.301 46.8295 106.862C46.5277 106.386 46.3577 105.838 46.3369 105.274C46.3125 104.551 46.426 103.83 46.6713 103.15L47.3021 101.045H43.5177L41.243 107.757H36.1571L37.1122 104.942L37.0101 105.042C36.3807 105.653 35.6864 106.193 34.9396 106.651C34.1979 107.104 33.4038 107.464 32.5749 107.723C31.72 107.991 30.8294 108.127 29.9338 108.125C29.212 108.13 28.4931 108.034 27.7973 107.842C27.1771 107.675 26.5995 107.378 26.1033 106.969C25.622 106.561 25.2439 106.044 25 105.461C24.95 105.346 24.9099 105.221 24.8699 105.099L24.8378 105.143C24.719 105.301 24.5942 105.46 24.4634 105.619L24.6636 105.501C24.3468 106.059 24.114 106.662 23.9728 107.289C23.8341 107.884 23.7417 108.489 23.6965 109.098C23.6565 109.667 23.6431 110.19 23.6565 110.667C23.6698 111.144 23.6765 111.515 23.6765 111.779C23.7081 112.659 23.4134 113.519 22.8495 114.192C22.3013 114.824 21.6474 115.355 20.9173 115.761C20.228 116.151 19.5015 116.47 18.7487 116.714C18.2243 116.87 17.7117 117.063 17.2149 117.293L16.6142 115.982C17.4826 115.699 18.2542 115.176 18.8408 114.474C19.3676 113.883 19.6679 113.123 19.6878 112.33C19.6818 111.8 19.7492 111.273 19.8881 110.762C20.005 110.334 20.1703 109.921 20.3806 109.531C20.5702 109.184 20.795 108.858 21.0514 108.558C21.301 108.265 21.544 107.974 21.7803 107.685C20.8847 108.022 19.9331 108.183 18.977 108.161C17.821 108.161 16.9213 107.956 16.2778 107.546C15.6542 107.161 15.1812 106.572 14.9383 105.879C14.6814 105.106 14.6074 104.283 14.722 103.476C14.8373 102.53 15.0487 101.599 15.3528 100.697C15.0163 101.532 14.6076 102.336 14.1313 103.1C13.6049 103.961 12.9836 104.761 12.2792 105.483C11.586 106.198 10.7968 106.813 9.93444 107.309C9.11508 107.789 8.18377 108.042 7.23528 108.043C6.34224 108.043 5.65878 107.842 5.18489 107.439C4.7092 107.038 4.37151 106.496 4.21976 105.891C4.04473 105.19 4.00463 104.463 4.10162 103.747C4.19716 102.937 4.37564 102.138 4.63425 101.364C5.31771 99.3265 6.0519 97.3081 6.83682 95.3092C7.62173 93.3103 8.34458 91.2913 9.00535 89.2522C9.21493 88.5644 9.26098 88.0952 9.14351 87.8445C9.08684 87.722 8.99398 87.62 8.87754 87.5523C8.76111 87.4847 8.62675 87.4547 8.49275 87.4664C7.94144 87.4664 7.37611 87.7245 6.79677 88.2407C6.18559 88.7938 5.63698 89.4129 5.16086 90.0867C4.64878 90.8011 4.18775 91.5511 3.78125 92.331C3.37411 93.1126 3.0524 93.7675 2.81612 94.2957C2.39634 94.2631 1.98456 94.1626 1.5967 93.9981C1.21452 93.8494 0.861394 93.6343 0.553481 93.3626C0.290837 93.1336 0.104855 92.8288 0.0208586 92.4899C-0.0128843 92.3049 -0.00561673 92.1148 0.0421439 91.933C0.0899046 91.7512 0.176984 91.5822 0.297181 91.4381C0.970373 90.5202 1.73671 89.6751 2.58385 88.9164C3.44032 88.1436 4.37134 87.4585 5.3631 86.8712C6.33488 86.2944 7.37397 85.8405 8.45671 85.5198C9.50482 85.2065 10.5952 85.0592 11.6885 85.0834C12.7924 85.1371 13.5874 85.3288 14.0733 85.6586C14.2985 85.7996 14.4932 85.9845 14.6459 86.2025C14.7987 86.4204 14.9062 86.667 14.9623 86.9275C15.0629 87.5178 15.0224 88.1236 14.8442 88.6951C14.66 89.3574 14.4364 90.0324 14.1734 90.7202L9.87637 102.585C9.53464 103.511 9.67947 103.975 10.3109 103.975C10.625 103.955 10.9233 103.829 11.1579 103.619C11.4957 103.346 11.8117 103.048 12.103 102.726C12.4535 102.342 12.7824 101.939 13.0881 101.519L14.0112 100.252C14.9777 98.831 15.7969 97.3142 16.4561 95.7255C17.245 93.8995 18.0199 91.9274 18.7808 89.8092C19.017 89.1483 19.2533 88.4934 19.4896 87.8445C19.7259 87.1956 19.9621 86.5253 20.1984 85.8335L25.835 85.8738L24.2592 90.2818L19.854 102.591C19.4295 103.759 19.3361 104.666 19.5737 105.314C19.8113 105.961 20.3499 106.219 21.1896 106.088C21.8768 105.967 22.5176 105.658 23.0417 105.195C23.6457 104.616 24.1714 103.961 24.6056 103.245C24.6067 101.967 24.8268 100.7 25.2563 99.4981C25.6744 98.3076 26.3168 97.209 27.1485 96.2624C28.0047 95.3018 29.0553 94.5359 30.2301 94.0162C31.5559 93.4383 32.99 93.1536 34.435 93.1816C35.2497 93.1705 36.0524 93.3788 36.7598 93.7849C37.4432 94.1871 37.785 94.7301 37.785 95.4138C37.7474 96.1538 37.4386 96.8536 36.9179 97.3785C36.3365 97.9981 35.6606 98.5208 34.9156 98.927C34.1211 99.3663 33.282 99.7189 32.4127 99.9787C31.6371 100.223 30.8376 100.383 30.0279 100.455C29.7485 101.067 29.5564 101.716 29.4572 102.382C29.3469 103.018 29.2873 103.662 29.279 104.308C29.2795 104.555 29.3057 104.801 29.3571 105.042C29.4085 105.292 29.5092 105.529 29.6535 105.738C29.8093 105.96 30.0196 106.138 30.2642 106.255C30.5992 106.403 30.9637 106.472 31.3294 106.456C31.9677 106.439 32.5916 106.262 33.1435 105.939C33.8006 105.577 34.4209 105.151 34.9957 104.668C35.6053 104.16 36.1843 103.616 36.7297 103.039C37.281 102.458 37.7669 101.928 38.1874 101.451C38.2218 101.468 38.2552 101.487 38.2875 101.507L40.9807 93.5496H46.1047L44.1344 99.2668H47.8507L49.6248 93.5496H54.8669L51.4029 105.026C51.2694 105.398 51.256 105.662 51.3628 105.821C51.4139 105.898 51.4845 105.961 51.5675 106.003C51.6504 106.044 51.7428 106.063 51.8354 106.058C53.0181 106.058 54.7655 104.734 57.0775 102.086C57.0975 102.086 57.1115 102.106 57.1316 102.116L60.0289 93.5496L64.8005 93.5396ZM31.858 98.4041C32.353 98.1296 32.8221 97.8105 33.2597 97.4509C33.663 97.1242 34.0266 96.751 34.3429 96.3388C34.6028 96.0324 34.7554 95.6488 34.7774 95.2469C34.7774 94.9037 34.6199 94.7314 34.3049 94.7301C33.8916 94.7488 33.4994 94.9183 33.2016 95.2067C32.8041 95.5563 32.4468 95.9496 32.1364 96.3791C31.7972 96.8391 31.4817 97.3163 31.1913 97.8089C30.9016 98.2995 30.6653 98.7165 30.4824 99.0597C30.9561 98.8746 31.4158 98.6556 31.858 98.4041ZM27.0664 122.699H24.6056V126.266H24.0049V122.164H27.0664V122.699ZM32.9273 122.817C33.1099 122.572 33.3494 122.374 33.6251 122.243C33.9007 122.111 34.2041 122.049 34.5091 122.061C34.7862 122.053 35.0618 122.105 35.3171 122.213C35.5725 122.321 35.8016 122.483 35.9889 122.689C36.3593 123.109 36.5639 123.651 36.5639 124.213C36.5639 124.774 36.3593 125.317 35.9889 125.737C35.8016 125.943 35.5725 126.105 35.3171 126.213C35.0618 126.321 34.7862 126.373 34.5091 126.365C34.2041 126.377 33.9007 126.315 33.6251 126.183C33.3494 126.051 33.1099 125.854 32.9273 125.609V127.961H32.3266V122.164H32.9273V122.817ZM32.9273 124.889C33.0557 125.163 33.2588 125.396 33.5132 125.56C33.7676 125.723 34.0629 125.811 34.365 125.814C34.5739 125.82 34.7818 125.782 34.9755 125.703C35.1692 125.624 35.3445 125.506 35.4903 125.355C35.6363 125.203 35.7511 125.024 35.8281 124.827C35.905 124.63 35.9427 124.42 35.9388 124.209C35.9434 123.999 35.906 123.79 35.829 123.594C35.752 123.399 35.6368 123.221 35.4903 123.071C35.3445 122.92 35.1692 122.802 34.9755 122.723C34.7818 122.644 34.5739 122.606 34.365 122.612C34.0633 122.617 33.7689 122.706 33.5149 122.869C33.2609 123.032 33.0574 123.264 32.9273 123.537V124.889ZM42.0199 122.162L43.4656 125.379L44.8672 122.162H45.526L43.5096 126.725C43.1452 127.573 42.6546 127.998 42.0459 127.998C41.8227 128.011 41.5996 127.97 41.3952 127.879V127.31C41.5674 127.401 41.7592 127.448 41.9538 127.447C42.4604 127.447 42.7828 127.044 43.1552 126.113L41.3371 122.164L42.0199 122.162ZM53.1829 125.058C53.1829 124.615 52.7524 124.378 52.0757 124.378H51.3648V123.843H52.0757C52.7264 123.843 53.0308 123.598 53.0308 123.24C53.0308 122.815 52.6503 122.602 51.8814 122.602C51.4187 122.603 50.9609 122.698 50.5359 122.882V122.321C51.0002 122.132 51.4987 122.042 51.9996 122.057C52.4115 122.043 52.8189 122.146 53.1749 122.355C53.3166 122.43 53.4354 122.542 53.5189 122.679C53.6024 122.817 53.6475 122.974 53.6495 123.135C53.6539 123.34 53.5921 123.541 53.4733 123.708C53.3546 123.874 53.1853 123.998 52.9907 124.06C53.5414 124.239 53.8197 124.579 53.8197 125.096C53.8197 125.852 53.0748 126.361 51.9175 126.361C51.4015 126.375 50.8883 126.28 50.4117 126.081V125.478C50.8586 125.69 51.347 125.8 51.8414 125.8C52.6563 125.816 53.1849 125.538 53.1849 125.06L53.1829 125.058ZM61.1923 122.059C61.4869 122.049 61.7803 122.1 62.0541 122.21C62.3278 122.32 62.5757 122.485 62.7822 122.697C63.1779 123.103 63.3995 123.649 63.3995 124.217C63.3995 124.785 63.1779 125.331 62.7822 125.737C62.3504 126.141 61.7823 126.366 61.1923 126.366C60.6023 126.366 60.0342 126.141 59.6024 125.737C59.2067 125.331 58.9851 124.785 58.9851 124.217C58.9851 123.649 59.2067 123.103 59.6024 122.697C59.8083 122.487 60.0551 122.323 60.3273 122.214C60.5996 122.105 60.8914 122.053 61.1843 122.063L61.1923 122.059ZM60.059 125.353C60.3634 125.648 60.7696 125.812 61.1923 125.812C61.615 125.812 62.0212 125.648 62.3256 125.353C62.6139 125.043 62.7742 124.635 62.7742 124.211C62.7742 123.787 62.6139 123.379 62.3256 123.069C62.0212 122.774 61.615 122.61 61.1923 122.61C60.7696 122.61 60.3634 122.774 60.059 123.069C59.7707 123.379 59.6103 123.787 59.6103 124.211C59.6103 124.635 59.7707 125.043 60.059 125.353ZM72.4314 126.262H71.8307V122.699H69.3638V126.266H68.7631V122.164H72.4334L72.4314 126.262ZM79.8741 122.059C81.2437 122.059 81.7863 123.266 81.7863 124.191V124.36H78.4224C78.4905 125.243 79.1833 125.812 80.1645 125.812C80.6292 125.814 81.0848 125.682 81.476 125.43V125.973C81.1376 126.236 80.665 126.363 80.0463 126.363C79.4549 126.376 78.881 126.16 78.4444 125.759C78.2329 125.563 78.066 125.323 77.955 125.057C77.8441 124.79 77.7918 124.502 77.8017 124.213C77.7843 123.645 77.9908 123.093 78.3764 122.677C78.5674 122.474 78.7993 122.314 79.0565 122.209C79.3137 122.103 79.5904 122.053 79.8681 122.063L79.8741 122.059ZM81.1676 123.869C81.1497 123.551 81.0247 123.248 80.8132 123.01C80.6937 122.875 80.5445 122.769 80.3774 122.701C80.2103 122.634 80.0297 122.606 79.8501 122.62C79.6668 122.612 79.4838 122.641 79.3118 122.706C79.1399 122.77 78.9825 122.868 78.8489 122.994C78.6079 123.224 78.4602 123.536 78.4344 123.869H81.1676ZM87.7653 122.825C87.948 122.58 88.1875 122.382 88.4631 122.251C88.7387 122.119 89.0422 122.057 89.3472 122.069C89.6242 122.061 89.8998 122.113 90.1552 122.221C90.4105 122.329 90.6396 122.491 90.8269 122.697C91.1974 123.117 91.4019 123.659 91.4019 124.221C91.4019 124.783 91.1974 125.325 90.8269 125.745C90.6396 125.951 90.4105 126.113 90.1552 126.221C89.8998 126.329 89.6242 126.381 89.3472 126.373C89.0422 126.385 88.7387 126.323 88.4631 126.191C88.1875 126.059 87.948 125.862 87.7653 125.617V127.969H87.1646V122.164H87.7653V122.825ZM87.7653 124.897C87.8937 125.171 88.0968 125.404 88.3512 125.568C88.6056 125.731 88.9009 125.819 89.203 125.822C89.4119 125.828 89.6198 125.79 89.8135 125.711C90.0072 125.632 90.1825 125.514 90.3283 125.363C90.4744 125.211 90.5892 125.032 90.6661 124.835C90.7431 124.638 90.7807 124.428 90.7768 124.217C90.7814 124.007 90.7441 123.798 90.6671 123.602C90.59 123.407 90.4749 123.229 90.3283 123.079C90.1825 122.928 90.0072 122.81 89.8135 122.731C89.6198 122.652 89.4119 122.614 89.203 122.62C88.9014 122.625 88.607 122.714 88.353 122.877C88.099 123.041 87.8954 123.272 87.7653 123.545V124.897ZM98.5399 122.069C99.9095 122.069 100.452 123.276 100.452 124.201V124.37H97.0882C97.1563 125.253 97.8491 125.822 98.8303 125.822C99.295 125.824 99.7506 125.692 100.142 125.44V125.983C99.8034 126.246 99.3308 126.373 98.7121 126.373C98.1207 126.387 97.5468 126.17 97.1102 125.769C96.8987 125.573 96.7318 125.334 96.6208 125.067C96.5099 124.8 96.4576 124.512 96.4675 124.223C96.4501 123.655 96.6566 123.103 97.0422 122.687C97.2323 122.482 97.4638 122.321 97.721 122.213C97.9783 122.106 98.2554 122.055 98.5339 122.063L98.5399 122.069ZM99.8334 123.879C99.8155 123.561 99.6905 123.258 99.479 123.02C99.3593 122.885 99.2098 122.779 99.0423 122.711C98.8748 122.643 98.6939 122.616 98.5139 122.63C98.3306 122.622 98.1476 122.651 97.9756 122.716C97.8037 122.78 97.6463 122.878 97.5127 123.004C97.2717 123.234 97.124 123.546 97.0982 123.879H99.8334ZM109.204 123.226C109.222 123.41 109.183 123.595 109.093 123.756C109.002 123.918 108.864 124.047 108.698 124.126C108.932 124.179 109.139 124.315 109.282 124.508C109.425 124.701 109.494 124.94 109.477 125.18C109.477 125.86 108.986 126.284 108.115 126.284H105.816V122.182H107.965C108.75 122.164 109.198 122.588 109.198 123.209L109.204 123.226ZM106.425 125.739H107.981C108.532 125.739 108.852 125.502 108.852 125.086C108.852 124.669 108.532 124.424 107.981 124.424H106.425V125.739ZM106.425 122.707V123.913H107.795C108.301 123.913 108.596 123.692 108.596 123.31C108.596 122.928 108.299 122.707 107.795 122.707H106.425ZM116.837 122.069C117.132 122.059 117.425 122.11 117.699 122.22C117.973 122.33 118.221 122.495 118.427 122.707C118.823 123.113 119.045 123.659 119.045 124.227C119.045 124.795 118.823 125.341 118.427 125.747C117.995 126.151 117.427 126.376 116.837 126.376C116.247 126.376 115.679 126.151 115.247 125.747C114.852 125.341 114.63 124.795 114.63 124.227C114.63 123.659 114.852 123.113 115.247 122.707C115.453 122.495 115.7 122.328 115.974 122.217C116.247 122.106 116.541 122.054 116.835 122.063L116.837 122.069ZM115.704 125.363C116.008 125.658 116.415 125.822 116.837 125.822C117.26 125.822 117.666 125.658 117.971 125.363C118.259 125.053 118.419 124.645 118.419 124.221C118.419 123.797 118.259 123.389 117.971 123.079C117.666 122.784 117.26 122.62 116.837 122.62C116.415 122.62 116.008 122.784 115.704 123.079C115.416 123.389 115.255 123.797 115.255 124.221C115.255 124.645 115.416 125.053 115.704 125.363ZM126.743 125.06C126.743 124.617 126.312 124.38 125.636 124.38H124.925V123.845H125.636C126.286 123.845 126.591 123.6 126.591 123.242C126.591 122.817 126.21 122.604 125.441 122.604C124.979 122.605 124.521 122.7 124.096 122.884V122.321C124.56 122.132 125.059 122.042 125.559 122.057C125.971 122.043 126.379 122.146 126.735 122.355C126.876 122.43 126.995 122.542 127.079 122.679C127.162 122.817 127.207 122.974 127.209 123.135C127.214 123.34 127.152 123.541 127.033 123.708C126.914 123.874 126.745 123.998 126.551 124.06C127.101 124.239 127.38 124.579 127.38 125.096C127.38 125.852 126.635 126.361 125.477 126.361C124.961 126.375 124.448 126.28 123.972 126.081V125.478C124.418 125.69 124.907 125.8 125.401 125.8C126.224 125.816 126.743 125.538 126.743 125.06ZM133.441 123.853L135.385 122.164H136.214L134.057 124.016L136.518 126.266H135.653L133.451 124.245V126.266H132.85V122.164H133.451L133.441 123.853ZM142.251 125.365L144.864 122.164H145.431V126.266H144.83V123.073L142.217 126.266H141.65V122.164H142.251V125.365Z" fill="#181818"/>
<path fill-rule="evenodd" clip-rule="evenodd" d="M83.6553 77.9955H83.934L84.2879 77.9814L114.866 76.6739L103.114 75.1886L104.688 73.9292L90.5724 74.9316C90.5724 74.9316 90.3857 74.1438 91.3611 74.1014L95.2823 73.9348L94.8977 72.3619L103.916 71.5797L103.518 73.1865L105.087 73.1187C105.639 73.0961 107.453 72.3619 107.453 69.8374C106.965 70.3344 105.098 70.3344 105.098 70.3344V69.9362C105.098 69.9362 104.875 69.4223 105.887 68.7107C106.559 68.2763 107.054 67.6104 107.28 66.8356L107.837 66.2342L107.89 55.8876C109.51 55.8029 109.061 55.0404 109.061 55.0404V51.8579C109.066 51.0475 107.901 51.1124 107.901 51.1124L107.054 51.6998L107.038 55.512C107.032 56.6698 107.007 57.4915 106.684 57.9433L105.685 58.0011C101.816 58.2252 93.7183 58.6945 90.4972 58.6945C90.447 58.6437 90.3551 58.6211 90.1683 58.6211C89.0257 58.6691 88.9867 57.6468 89.0034 56.2829C89.0201 54.919 89.0201 52.3041 89.0201 52.3041L88.237 51.9398C88.237 51.9398 86.2862 52.0048 86.2862 52.8181V56.0005C86.2862 56.0005 86.5955 56.7827 88.237 56.7121V58.3726V59.8862L88.2119 65.8614C88.2119 65.8614 87.5319 60.5667 86.2862 57.5C84.7143 56.6557 83.3237 55.6221 83.162 55.3398C82.9558 54.9839 82.7997 51.4231 82.7802 49.6186C87.3758 50.559 93.7802 51.3073 102.01 50.9543C109.066 50.6409 110.254 47.817 110.254 47.817V46.2159C109.281 47.1619 107.127 48.3479 102.406 48.5512C94.5717 48.8873 81.6237 48.2858 75.119 44.8604C77.0785 45.8092 78.4513 44.8324 78.5217 42.23C78.6037 45.5221 84.5773 48.5178 102.408 47.7549C105.243 47.6335 108.587 47.0772 110.259 45.3546V43.8382C110.273 40.5767 107.564 32.1814 100.134 28.3635L99.3512 28.3974L98.5597 30.0211L96.9907 30.0889C96.9907 30.0889 87.9109 22.2583 77.0057 28.5584C82.1615 23.5065 88.839 20.7024 98.1863 26.864C99.237 26.8386 100.143 26.8132 100.909 26.7906L100.931 26.7454L103.677 26.6268L105.834 24.3678L100.162 24.0035C100.162 24.0035 79.2604 12.4398 72.2931 33.1499C75.1023 24.2237 78.8757 20.2816 87.2142 19.7988C87.11 18.4652 86.6848 14.0098 85.7607 11.2362C86.7024 14.0206 87.438 16.8723 87.9611 19.7677C89.7001 19.7677 92.4898 20.3099 95.1681 21.0977C95.4718 19.94 96.4779 16.0515 97.0715 13.4084C96.5169 18.031 95.9874 20.7899 95.8815 21.3152C97.1156 21.6932 98.3255 22.1477 99.5045 22.6763C100.254 21.5919 104.223 15.6449 105.694 9.06249C105.07 13.4733 100.538 23.2015 100.538 23.2015L105.647 23.4105L105.633 23.3822C105.633 23.3822 111.962 13.5072 119.289 7.68445C116.822 7.13097 112.765 6.5775 106.486 6.64245C113.28 6.39395 118.118 6.49843 120.721 6.60856L121 6.41654C115.426 0.904384 105.491 -0.281633 93.5851 0.0515812C96.8909 0.995138 100.019 2.48754 102.843 4.46808C99.6801 2.49139 95.7561 1.20654 91.637 0.797078V0.907208C91.637 0.907208 91.729 3.6294 91.6203 4.88601C91.6593 2.81048 90.9236 1.46633 90.2659 0.686948C89.0521 0.623149 87.8355 0.636353 86.6234 0.726481C85.8152 0.90156 85.0153 1.119 84.2238 1.37032C84.2852 2.84719 84.4635 5.73599 84.9457 7.5602C84.4044 5.59959 83.6511 3.70554 82.6994 1.9125C80.4901 2.7698 78.4081 3.93196 76.5124 5.36607C77.6531 6.57898 78.6382 7.93289 79.4443 9.3957C78.3731 8.05218 77.0402 6.94672 75.5287 6.14828C73.6245 7.74334 71.9376 9.58741 70.5122 11.6322C71.2914 12.2663 72.0357 12.9431 72.7418 13.6597C71.9531 12.8719 70.7909 12.5076 70.0189 12.3438C68.8735 14.0885 67.8875 15.9354 67.0732 17.8616C68.5837 17.9011 70.7937 18.2344 72.7167 19.6237C70.5512 18.4066 68.174 18.6269 66.6105 18.9968C65.7228 21.2989 65.0246 23.6715 64.5231 26.0903L64.5368 26.087C65.0952 25.9519 65.827 25.7748 66.7945 25.5255C65.8787 25.8401 65.0404 26.3505 64.3364 27.0222C64.0605 28.468 63.8264 29.9675 63.6536 31.5403C63.2774 34.9403 62.8789 37.8658 62.4775 40.3846C63.1798 39.6956 64.0689 38.8343 65.2087 37.7443C64.1371 38.7859 63.1777 39.9398 62.3466 41.1866C61.8254 44.3211 61.2987 46.7891 60.8026 48.7291C62.2572 47.5 63.493 46.0272 64.4562 44.3747C62.7618 47.3285 61.3934 49.0256 60.4319 49.9942C60.4189 50.0822 60.4008 50.1718 60.3829 50.2605L60.3678 50.3359C60.1542 51.0475 59.9544 51.6735 59.7687 52.2137C58.2693 55.4781 54.6435 58.2878 50.5969 59.9229C54.5939 58.7298 58.3953 56.9456 61.8783 54.6281C63.6118 53.7527 65.8218 52.1686 68.2882 49.2346C67.5581 55.0037 61.9592 62.6281 61.9592 62.6281L62.3521 62.6112C62.3521 62.6112 65.7299 61.0355 68.6506 56.3761C69.865 54.4372 70.8132 52.6238 71.6063 51.107L71.8221 50.6945C70.7407 53.7584 69.0128 57.9942 67.062 60.818C71.5211 57.5875 75.7015 57.2684 75.7015 57.2684V57.6835L75.6819 62.4559C75.6792 63.2917 77.7693 64.8759 79.4415 66.0224C80.5628 67.1165 80.4999 68.3151 80.407 70.0828C80.3877 70.4504 80.3671 70.8425 80.3556 71.2634C80.3533 71.3086 80.3533 71.3538 80.3556 71.399C80.3472 73.5875 77.212 73.5225 77.212 73.5225L72.6776 73.2034C72.546 73.1499 72.4028 73.1323 72.2624 73.1526C71.2368 73.243 70.2725 72.4523 70.2725 70.3033V70.1085C70.228 68.256 69.5061 66.8554 68.5391 66.9288C67.572 67.0023 66.7722 68.6514 66.7722 70.5998C66.7638 72.4156 64.7628 72.5907 62.7618 72.4636C62.4525 72.441 62.3243 72.4438 62.3243 72.4636L49 71.5317L82.2312 77.8261C82.6938 77.96 83.1747 78.0172 83.6553 77.9955ZM103.493 66.4205C101.829 66.8018 97.4366 67.1406 95.26 66.7735L95.274 66.7707C93.0974 66.4036 93.3176 62.8794 93.3176 62.8794C93.3176 62.8794 93.1921 62.4869 93.7105 62.4643L105.078 61.9786C105.078 61.9786 105.469 61.877 105.469 62.3598C105.469 62.8427 105.156 66.0393 103.493 66.4205ZM96.0264 71.1138C96.6117 71.2267 102.545 71.0206 103.083 70.8116C103.621 70.6027 103.874 69.1879 103.874 69.1879L94.8587 69.5748C94.8587 69.5748 95.4551 71.0008 96.0376 71.1138H96.0264ZM91.7948 71.6922C91.4994 71.7037 91.2039 71.7151 90.9403 71.7266C90.16 71.7633 89.3769 70.8145 89.3824 70.5998V69.4053L92.9107 69.2557C92.9107 69.2557 93.56 70.9557 93.6854 71.2098C93.8108 71.4639 93.8053 71.591 93.2925 71.6249C92.9529 71.6473 92.3739 71.6698 91.7948 71.6922ZM83.6692 76.0132C84.6447 75.9708 85.4389 74.333 85.4501 72.3563C85.4612 70.3796 84.6753 68.8095 83.7027 68.8491C82.7301 68.8886 81.933 70.5293 81.9219 72.5059C81.9107 74.4826 82.6966 76.0583 83.6692 76.016V76.0132ZM67.6166 70.9811C67.6222 69.7725 68.0235 68.753 68.5112 68.705V68.7079C69.0017 68.6599 69.3919 69.6002 69.3863 70.8088C69.3807 72.0174 68.9794 73.0368 68.4917 73.0848C68.004 73.1328 67.611 72.1897 67.6166 70.9811Z" fill="#181818"/>
</svg>
